<svg xmlns="http://www.w3.org/2000/svg" width="920" height="34" viewBox="0 0 920 34" role="img"
  aria-label="Transectus — phosphor segment divider">
  <defs>
    <style>
    @keyframes drift {
      from { transform: translateX(0); }
      to   { transform: translateX(-1224px); }
    }
    .stream { font-family:'Courier New',Courier,monospace; font-size:15px;
               animation:drift 16s linear infinite; }
    </style>
    <linearGradient id="fade" x1="0" y1="0" x2="1" y2="0">
      <stop offset="0%"   stop-color="#010502" stop-opacity="1"/>
      <stop offset="10%"  stop-color="#010502" stop-opacity="0"/>
      <stop offset="90%"  stop-color="#010502" stop-opacity="0"/>
      <stop offset="100%" stop-color="#010502" stop-opacity="1"/>
    </linearGradient>
    <clipPath id="clip"><rect width="920" height="34"/></clipPath>
  </defs>
  <rect width="920" height="34" fill="#010502"/>
  <g clip-path="url(#clip)">
    <text class="stream"><tspan x="4" y="22" fill="#2a8f4a" opacity="0.42">ｹ</tspan><tspan x="17" y="22" fill="#2a8f4a" opacity="0.3">R</tspan><tspan x="30" y="22" fill="#2a8f4a" opacity="0.5">T</tspan><tspan x="43" y="22" fill="#a8ffbe" opacity="1.0">0</tspan><tspan x="56" y="22" fill="#4dff7c" opacity="0.9">ｱ</tspan><tspan x="69" y="22" fill="#2a8f4a" opacity="0.52">X</tspan><tspan x="82" y="22" fill="#2a8f4a" opacity="0.64">U</tspan><tspan x="95" y="22" fill="#2a8f4a" opacity="0.69">ﾋ</tspan><tspan x="108" y="22" fill="#4dff7c" opacity="0.9">T</tspan><tspan x="121" y="22" fill="#2a8f4a" opacity="0.53">O</tspan><tspan x="134" y="22" fill="#2a8f4a" opacity="0.61">L</tspan><tspan x="147" y="22" fill="#2a8f4a" opacity="0.6">I</tspan><tspan x="160" y="22" fill="#2a8f4a" opacity="0.32">D</tspan><tspan x="173" y="22" fill="#2a8f4a" opacity="0.31">A</tspan><tspan x="186" y="22" fill="#2a8f4a" opacity="0.32">ｽ</tspan><tspan x="199" y="22" fill="#2a8f4a" opacity="0.4">A</tspan><tspan x="212" y="22" fill="#2a8f4a" opacity="0.65">ﾋ</tspan><tspan x="225" y="22" fill="#4dff7c" opacity="0.9">ｱ</tspan><tspan x="238" y="22" fill="#2a8f4a" opacity="0.45">V</tspan><tspan x="251" y="22" fill="#2a8f4a" opacity="0.54">B</tspan><tspan x="264" y="22" fill="#4dff7c" opacity="0.9">ﾌ</tspan><tspan x="277" y="22" fill="#4dff7c" opacity="0.9">1</tspan><tspan x="290" y="22" fill="#2a8f4a" opacity="0.57">I</tspan><tspan x="303" y="22" fill="#2a8f4a" opacity="0.65">1</tspan><tspan x="316" y="22" fill="#2a8f4a" opacity="0.47">G</tspan><tspan x="329" y="22" fill="#a8ffbe" opacity="1.0">A</tspan><tspan x="342" y="22" fill="#2a8f4a" opacity="0.6">ｸ</tspan><tspan x="355" y="22" fill="#2a8f4a" opacity="0.46">ﾍ</tspan><tspan x="368" y="22" fill="#2a8f4a" opacity="0.58">D</tspan><tspan x="381" y="22" fill="#a8ffbe" opacity="1.0">O</tspan><tspan x="394" y="22" fill="#2a8f4a" opacity="0.55">I</tspan><tspan x="407" y="22" fill="#a8ffbe" opacity="1.0">ﾚ</tspan><tspan x="420" y="22" fill="#4dff7c" opacity="0.9">ﾛ</tspan><tspan x="433" y="22" fill="#a8ffbe" opacity="1.0">S</tspan><tspan x="446" y="22" fill="#2a8f4a" opacity="0.42">I</tspan><tspan x="459" y="22" fill="#4dff7c" opacity="0.9">S</tspan><tspan x="472" y="22" fill="#2a8f4a" opacity="0.63">⚙</tspan><tspan x="485" y="22" fill="#4dff7c" opacity="0.9">S</tspan><tspan x="498" y="22" fill="#4dff7c" opacity="0.9">M</tspan><tspan x="511" y="22" fill="#4dff7c" opacity="0.9">0</tspan><tspan x="524" y="22" fill="#4dff7c" opacity="0.9">I</tspan><tspan x="537" y="22" fill="#2a8f4a" opacity="0.39">ﾕ</tspan><tspan x="550" y="22" fill="#2a8f4a" opacity="0.52">ﾇ</tspan><tspan x="563" y="22" fill="#2a8f4a" opacity="0.56">F</tspan><tspan x="576" y="22" fill="#4dff7c" opacity="0.9">ｺ</tspan><tspan x="589" y="22" fill="#2a8f4a" opacity="0.68">I</tspan><tspan x="602" y="22" fill="#2a8f4a" opacity="0.42">H</tspan><tspan x="615" y="22" fill="#4dff7c" opacity="0.9">N</tspan><tspan x="628" y="22" fill="#2a8f4a" opacity="0.51">I</tspan><tspan x="641" y="22" fill="#2a8f4a" opacity="0.62">ﾃ</tspan><tspan x="654" y="22" fill="#4dff7c" opacity="0.9">ﾌ</tspan><tspan x="667" y="22" fill="#4dff7c" opacity="0.9">ﾖ</tspan><tspan x="680" y="22" fill="#2a8f4a" opacity="0.31">ｴ</tspan><tspan x="693" y="22" fill="#4dff7c" opacity="0.9">ｺ</tspan><tspan x="706" y="22" fill="#2a8f4a" opacity="0.66">S</tspan><tspan x="719" y="22" fill="#2a8f4a" opacity="0.65">ﾏ</tspan><tspan x="732" y="22" fill="#2a8f4a" opacity="0.31">N</tspan><tspan x="745" y="22" fill="#2a8f4a" opacity="0.53">ﾑ</tspan><tspan x="758" y="22" fill="#2a8f4a" opacity="0.34">ﾍ</tspan><tspan x="771" y="22" fill="#2a8f4a" opacity="0.65">ｽ</tspan><tspan x="784" y="22" fill="#2a8f4a" opacity="0.57">ﾒ</tspan><tspan x="797" y="22" fill="#2a8f4a" opacity="0.39">B</tspan><tspan x="810" y="22" fill="#4dff7c" opacity="0.9">ｶ</tspan><tspan x="823" y="22" fill="#2a8f4a" opacity="0.35">U</tspan><tspan x="836" y="22" fill="#2a8f4a" opacity="0.45">I</tspan><tspan x="849" y="22" fill="#2a8f4a" opacity="0.43">ﾏ</tspan><tspan x="862" y="22" fill="#2a8f4a" opacity="0.31">ﾍ</tspan><tspan x="875" y="22" fill="#2a8f4a" opacity="0.31">ﾗ</tspan><tspan x="888" y="22" fill="#2a8f4a" opacity="0.54">I</tspan><tspan x="901" y="22" fill="#2a8f4a" opacity="0.35">L</tspan><tspan x="914" y="22" fill="#2a8f4a" opacity="0.68">ﾜ</tspan><tspan x="927" y="22" fill="#a8ffbe" opacity="1.0">T</tspan><tspan x="940" y="22" fill="#ff3b1f" opacity="0.99">†</tspan><tspan x="953" y="22" fill="#a8ffbe" opacity="1.0">ﾗ</tspan><tspan x="966" y="22" fill="#2a8f4a" opacity="0.31">A</tspan><tspan x="979" y="22" fill="#2a8f4a" opacity="0.67">ﾋ</tspan><tspan x="992" y="22" fill="#2a8f4a" opacity="0.45">C</tspan><tspan x="1005" y="22" fill="#2a8f4a" opacity="0.47">D</tspan><tspan x="1018" y="22" fill="#2a8f4a" opacity="0.6">0</tspan><tspan x="1031" y="22" fill="#2a8f4a" opacity="0.31">0</tspan><tspan x="1044" y="22" fill="#2a8f4a" opacity="0.35">ﾇ</tspan><tspan x="1057" y="22" fill="#4dff7c" opacity="0.9">I</tspan><tspan x="1070" y="22" fill="#4dff7c" opacity="0.9">L</tspan><tspan x="1083" y="22" fill="#4dff7c" opacity="0.9">T</tspan><tspan x="1096" y="22" fill="#2a8f4a" opacity="0.51">ﾉ</tspan><tspan x="1109" y="22" fill="#2a8f4a" opacity="0.39">M</tspan><tspan x="1122" y="22" fill="#4dff7c" opacity="0.9">ﾃ</tspan><tspan x="1135" y="22" fill="#4dff7c" opacity="0.9">I</tspan><tspan x="1148" y="22" fill="#2a8f4a" opacity="0.67">ﾓ</tspan><tspan x="1161" y="22" fill="#2a8f4a" opacity="0.58">A</tspan><tspan x="1174" y="22" fill="#a8ffbe" opacity="1.0">ﾔ</tspan><tspan x="1187" y="22" fill="#4dff7c" opacity="0.9">C</tspan><tspan x="1200" y="22" fill="#2a8f4a" opacity="0.48">C</tspan><tspan x="1213" y="22" fill="#4dff7c" opacity="0.9">ｾ</tspan><tspan x="1226" y="22" fill="#2a8f4a" opacity="0.7">M</tspan><tspan x="1239" y="22" fill="#2a8f4a" opacity="0.43">N</tspan><tspan x="1252" y="22" fill="#2a8f4a" opacity="0.31">ｴ</tspan><tspan x="1265" y="22" fill="#2a8f4a" opacity="0.55">ｳ</tspan><tspan x="1278" y="22" fill="#2a8f4a" opacity="0.45">ﾐ</tspan><tspan x="1291" y="22" fill="#2a8f4a" opacity="0.45">H</tspan><tspan x="1304" y="22" fill="#4dff7c" opacity="0.9">H</tspan><tspan x="1317" y="22" fill="#2a8f4a" opacity="0.56">ﾂ</tspan><tspan x="1330" y="22" fill="#4dff7c" opacity="0.9">ｿ</tspan><tspan x="1343" y="22" fill="#2a8f4a" opacity="0.66">I</tspan><tspan x="1356" y="22" fill="#2a8f4a" opacity="0.69">ｿ</tspan><tspan x="1369" y="22" fill="#2a8f4a" opacity="0.57">H</tspan><tspan x="1382" y="22" fill="#a8ffbe" opacity="1.0">ﾆ</tspan><tspan x="1395" y="22" fill="#a8ffbe" opacity="1.0">V</tspan><tspan x="1408" y="22" fill="#2a8f4a" opacity="0.62">X</tspan><tspan x="1421" y="22" fill="#2a8f4a" opacity="0.66">I</tspan><tspan x="1434" y="22" fill="#4dff7c" opacity="0.9">A</tspan><tspan x="1447" y="22" fill="#2a8f4a" opacity="0.54">ﾖ</tspan><tspan x="1460" y="22" fill="#2a8f4a" opacity="0.37">I</tspan><tspan x="1473" y="22" fill="#4dff7c" opacity="0.9">ﾃ</tspan><tspan x="1486" y="22" fill="#2a8f4a" opacity="0.67">U</tspan><tspan x="1499" y="22" fill="#2a8f4a" opacity="0.5">C</tspan><tspan x="1512" y="22" fill="#4dff7c" opacity="0.9">ﾘ</tspan><tspan x="1525" y="22" fill="#2a8f4a" opacity="0.45">ﾘ</tspan><tspan x="1538" y="22" fill="#a8ffbe" opacity="1.0">B</tspan><tspan x="1551" y="22" fill="#2a8f4a" opacity="0.4">A</tspan><tspan x="1564" y="22" fill="#2a8f4a" opacity="0.57">ﾏ</tspan><tspan x="1577" y="22" fill="#a8ffbe" opacity="1.0">ﾈ</tspan><tspan x="1590" y="22" fill="#a8ffbe" opacity="1.0">ｶ</tspan><tspan x="1603" y="22" fill="#2a8f4a" opacity="0.42">M</tspan><tspan x="1616" y="22" fill="#4dff7c" opacity="0.9">ﾇ</tspan><tspan x="1629" y="22" fill="#2a8f4a" opacity="0.57">1</tspan><tspan x="1642" y="22" fill="#2a8f4a" opacity="0.54">0</tspan><tspan x="1655" y="22" fill="#4dff7c" opacity="0.9">I</tspan><tspan x="1668" y="22" fill="#2a8f4a" opacity="0.55">T</tspan><tspan x="1681" y="22" fill="#2a8f4a" opacity="0.33">ｿ</tspan><tspan x="1694" y="22" fill="#2a8f4a" opacity="0.32">C</tspan><tspan x="1707" y="22" fill="#4dff7c" opacity="0.9">ｽ</tspan><tspan x="1720" y="22" fill="#2a8f4a" opacity="0.34">ｶ</tspan><tspan x="1733" y="22" fill="#2a8f4a" opacity="0.62">C</tspan><tspan x="1746" y="22" fill="#2a8f4a" opacity="0.66">I</tspan><tspan x="1759" y="22" fill="#2a8f4a" opacity="0.52">C</tspan><tspan x="1772" y="22" fill="#2a8f4a" opacity="0.57">ﾜ</tspan><tspan x="1785" y="22" fill="#2a8f4a" opacity="0.55">ﾔ</tspan><tspan x="1798" y="22" fill="#4dff7c" opacity="0.9">S</tspan><tspan x="1811" y="22" fill="#2a8f4a" opacity="0.59">0</tspan><tspan x="1824" y="22" fill="#2a8f4a" opacity="0.67">T</tspan><tspan x="1837" y="22" fill="#4dff7c" opacity="0.9">ﾓ</tspan><tspan x="1850" y="22" fill="#2a8f4a" opacity="0.61">I</tspan><tspan x="1863" y="22" fill="#2a8f4a" opacity="0.54">ﾆ</tspan><tspan x="1876" y="22" fill="#2a8f4a" opacity="0.54">S</tspan><tspan x="1889" y="22" fill="#ff3b1f" opacity="0.98">CHAOS</tspan><tspan x="1902" y="22" fill="#2a8f4a" opacity="0.5">ﾖ</tspan><tspan x="1915" y="22" fill="#a8ffbe" opacity="1.0">U</tspan><tspan x="1928" y="22" fill="#2a8f4a" opacity="0.5">ﾅ</tspan><tspan x="1941" y="22" fill="#2a8f4a" opacity="0.33">C</tspan><tspan x="1954" y="22" fill="#2a8f4a" opacity="0.59">ﾅ</tspan><tspan x="1967" y="22" fill="#2a8f4a" opacity="0.51">ｽ</tspan><tspan x="1980" y="22" fill="#4dff7c" opacity="0.9">ｹ</tspan></text>
  </g>
  <line x1="0" y1="1.5" x2="920" y2="1.5" stroke="#4dff7c" stroke-opacity="0.45" stroke-width="1"/>
  <line x1="0" y1="32.5" x2="920" y2="32.5" stroke="#4dff7c" stroke-opacity="0.45" stroke-width="1"/>
  <rect width="920" height="34" fill="url(#fade)" pointer-events="none"/>
</svg>
